<svg xmlns="http://www.w3.org/2000/svg" viewBox="0 0 381.85 575.86"><g id="Ebene_2" data-name="Ebene 2"><g id="Layer_1" data-name="Layer 1"><path d="M238.58,205.71l-47.66,46.12-47.65-46.12h0V138.9L78,191.86v21.33l.79.79-.79.83L153.59,288l-23.52,22.73-52,52V384l65.34,53.05V370.25l47.54-46.06,47.55,46.06v66.81L303.81,384V362.78l-52-52L228.26,288l75.55-73.2L303,214l.78-.79V191.86l-65.23-53v66.81ZM190.92,66.81C145.07,104,106.85,135.08,52,179.58v216.7L190.92,509.06l138.9-112.78V179.58Zm0,509.05L0,420.85V155L190.92,0,381.85,155V420.85Z"/></g></g></svg>